<?xml version="1.0" encoding="UTF-8" standalone="no"?>
<!-- Created with Inkscape (http://www.inkscape.org/) -->

<svg
   xmlns:dc="http://purl.org/dc/elements/1.1/"
   xmlns:cc="http://creativecommons.org/ns#"
   xmlns:rdf="http://www.w3.org/1999/02/22-rdf-syntax-ns#"
   xmlns:svg="http://www.w3.org/2000/svg"
   xmlns="http://www.w3.org/2000/svg"
   xmlns:sodipodi="http://sodipodi.sourceforge.net/DTD/sodipodi-0.dtd"
   xmlns:inkscape="http://www.inkscape.org/namespaces/inkscape"
   width="61.436684mm"
   height="50.376667mm"
   viewBox="0 0 61.436684 50.376667"
   version="1.1"
   id="svg4978"
   inkscape:version="0.92.5 (2060ec1f9f, 2020-04-08)"
   sodipodi:docname="logo_weiß_2.svg">
  <defs
     id="defs4972" />
  <sodipodi:namedview
     id="base"
     pagecolor="#ffffff"
     bordercolor="#666666"
     borderopacity="1.0"
     inkscape:pageopacity="0.0"
     inkscape:pageshadow="2"
     inkscape:zoom="0.35"
     inkscape:cx="381.81511"
     inkscape:cy="-356.22857"
     inkscape:document-units="mm"
     inkscape:current-layer="layer1"
     showgrid="false"
     fit-margin-top="0"
     fit-margin-left="0"
     fit-margin-right="0"
     fit-margin-bottom="0"
     inkscape:window-width="1366"
     inkscape:window-height="719"
     inkscape:window-x="0"
     inkscape:window-y="25"
     inkscape:window-maximized="1" />
  <metadata
     id="metadata4975">
    <rdf:RDF>
      <cc:Work
         rdf:about="">
        <dc:format>image/svg+xml</dc:format>
        <dc:type
           rdf:resource="http://purl.org/dc/dcmitype/StillImage" />
        <dc:title></dc:title>
      </cc:Work>
    </rdf:RDF>
  </metadata>
  <g
     inkscape:label="Ebene 1"
     inkscape:groupmode="layer"
     id="layer1"
     transform="translate(-4.8114201,-4.2045235)">
    <path
       inkscape:connector-curvature="0"
       id="path4970"
       d="m 4.8114201,48.620913 v -5.960271 h 5.2725499 5.272553 v -7.189587 -7.189577 l 0.687724,-0.865388 c 0.378248,-0.475965 0.707503,-0.876994 0.731679,-0.891178 0.02418,-0.01418 0.114162,-2.243698 0.199969,-4.954479 0.149958,-4.737446 0.194297,-5.090935 1.142675,-9.110124 0.542665,-2.29979 1.016367,-4.1517338 1.052676,-4.1154248 0.03631,0.03631 0.381855,1.556899 0.767882,3.3790918 0.826875,3.903156 1.110586,4.853593 1.396145,4.67711 0.115922,-0.07164 0.210764,-0.865293 0.210764,-1.763665 0,-1.1813 0.13085,-1.9037 0.472745,-2.609958 0.464222,-0.958955 0.89695,-2.9008038 1.390298,-6.2388798 0.141687,-0.958686 0.334949,-1.597369 0.448879,-1.483439 0.110037,0.110038 0.310531,1.022353 0.445539,2.02737 0.387022,2.881047 0.889326,4.9953428 1.377463,5.7980198 0.347602,0.571588 0.449906,1.155563 0.449906,2.568199 0,1.736305 0.225415,2.307082 0.563644,1.427218 0.08482,-0.220644 0.511612,-2.046234 0.948426,-4.056863 0.436816,-2.010633 0.825228,-3.6867098 0.863137,-3.7246188 0.03791,-0.03791 0.40717,1.555573 0.820576,3.5410718 0.413409,1.9855 0.895064,3.957862 1.070348,4.383029 0.235839,0.572053 0.320659,2.002438 0.326255,5.501791 l 0.0076,4.728762 1.515336,0.916967 c 1.195861,0.723646 1.568823,1.08553 1.769057,1.716516 0.27786,0.87559 0.669681,1.055317 1.561494,0.716251 0.879811,-0.334505 1.512263,-1.908527 2.144646,-5.337506 0.309933,-1.680546 0.592847,-3.146369 0.628693,-3.257383 0.03585,-0.111017 0.350647,1.324652 0.699547,3.190375 0.348901,1.86572 0.780775,3.675351 0.959721,4.021396 0.434012,0.839285 1.415981,1.586625 2.084747,1.586625 0.518017,0 0.54219,0.07095 0.54219,1.591163 0,0.875135 0.07737,1.638725 0.171929,1.696862 0.09456,0.05814 1.332465,-1.505153 2.750896,-3.473983 l 2.578963,-3.579685 V 22.87507 c 0,-3.089146 0.04512,-3.475025 0.477351,-4.082029 0.383883,-0.53912 0.566091,-1.466175 0.930573,-4.734834 0.24928,-2.235454 0.528871,-4.2572438 0.621319,-4.4928658 0.101354,-0.258313 0.33211,0.9704168 0.5812,3.0947568 0.508227,4.334417 0.778406,5.700452 1.228505,6.211345 0.49458,0.561379 0.745881,0.297434 0.745881,-0.78341 0,-0.517801 0.195401,-1.25207 0.438682,-1.648471 0.447315,-0.728848 0.790858,-2.742273 1.539907,-9.0251458 0.2142,-1.796881 0.41409,-3.241101 0.444179,-3.20938 0.03009,0.03172 0.329954,2.275586 0.666369,4.986367 0.711464,5.7328448 0.947782,6.9761538 1.39682,7.3488218 0.180443,0.149755 0.329483,0.594913 0.331205,0.989246 0.0039,0.900795 0.225002,1.748549 0.455972,1.748549 0.479394,0 0.973225,-1.962449 1.450714,-5.765022 0.289218,-2.30324 0.585332,-4.0888858 0.658037,-3.9681008 0.0727,0.120784 0.306295,1.8185658 0.519094,3.7728488 0.447947,4.1138 0.641188,4.99591 1.269415,5.794576 0.412433,0.524319 0.457708,0.930992 0.457708,4.111302 v 3.529423 l 0.802344,0.777663 0.802343,0.777663 v 3.279033 3.279026 h 1.146207 1.146207 v 9.857377 9.857381 h -8.60026 -8.60026 l -0.382609,-0.802344 -0.382609,-0.802344 h -9.887087 -9.887081 l -0.382611,0.802344 -0.382611,0.802344 H 16.277197 4.8114201 Z M 38.96838,51.830296 v -0.91697 l -4.642134,0.0019 -4.642139,0.0019 -0.522639,0.915199 -0.522637,0.915199 h 5.164776 5.164773 v -0.916967 z m 8.68363,0 c -0.504666,-0.897935 -0.541846,-0.916991 -1.79129,-0.918105 -0.70176,-7.93e-4 -1.755587,0.170776 -2.341846,0.380892 -0.99382,0.356174 -1.120214,0.356251 -1.868575,0.0011 -0.441462,-0.209502 -1.173911,-0.380902 -1.627666,-0.380902 -0.809686,0 -0.825011,0.01704 -0.825011,0.916969 v 0.916964 h 4.484876 4.484873 z M 38.96838,49.76712 v -0.916964 h -4.121682 -4.121685 l -0.467802,0.916964 -0.467802,0.916969 h 4.58949 4.589481 z m 2.671635,0.573106 c 0.452639,-0.189124 1.019934,-0.343863 1.260663,-0.343863 0.546743,0 0.829884,-0.663999 0.399383,-0.936591 -0.175977,-0.111427 -1.171014,-0.204176 -2.211197,-0.206105 l -1.891242,-0.0035 v 0.916966 c 0,0.896721 0.01789,0.916967 0.80971,0.916967 0.445336,0 1.180044,-0.154739 1.632683,-0.343863 z m 5.101183,-0.171934 c -0.54415,-1.052121 -0.94025,-1.318136 -1.96269,-1.318136 h -0.996059 v 0.916964 0.916969 h 1.612755 c 1.598702,0 1.610431,-0.0045 1.345994,-0.515797 z m -11.30993,-1.68868 c 0.261038,-0.06434 0.635304,-0.471495 0.831702,-0.904801 0.423619,-0.934603 0.248243,-0.993365 -1.21607,-0.407461 -0.893075,0.357336 -0.995982,0.355939 -1.699824,-0.0231 -0.417462,-0.224816 -0.947488,-0.340534 -1.19702,-0.261334 -0.409762,0.130053 -0.975881,1.005739 -0.975881,1.509517 0,0.218601 3.43815,0.289015 4.257093,0.08719 z m 3.422491,-0.77252 c 0,-0.594815 -0.108259,-0.82006 -0.423304,-0.880734 -0.34113,-0.06569 -0.392747,0.01479 -0.265893,0.414464 0.105251,0.331619 0.01871,0.649254 -0.261133,0.95848 -0.411525,0.454734 -0.407067,0.46119 0.265893,0.384744 0.614008,-0.06975 0.684437,-0.159994 0.684437,-0.876954 z m 4.699448,-0.0032 c 0,-0.881467 -0.02886,-0.917011 -0.74503,-0.918101 -0.409774,-7.94e-4 -1.260832,0.168492 -1.891242,0.375811 -0.630414,0.207325 -1.275159,0.410912 -1.432758,0.452425 -0.157607,0.04151 -0.286555,0.28503 -0.286555,0.541157 0,0.435393 0.141613,0.465672 2.177796,0.465672 h 2.177789 z m 2.118883,0.784847 c 0.211522,-0.211526 -0.590081,-1.461249 -1.027935,-1.602578 -0.61001,-0.196895 -0.861706,0.07938 -0.861706,0.945882 0,0.761741 0.03016,0.788813 0.878758,0.788813 0.483317,0 0.938213,-0.05945 1.010883,-0.132117 z M 33.430642,46.162317 c 0.652418,-0.374438 0.747573,-0.374375 1.795196,0.0011 1.404204,0.503319 3.036808,0.504748 4.087757,0.0036 0.713176,-0.340093 0.914537,-0.350685 1.555157,-0.0818 0.404749,0.169878 1.174329,0.356068 1.710182,0.413755 l 0.974273,0.104881 v -0.940049 -0.940048 h -5.344713 -5.344713 l -0.386319,0.810122 c -0.212476,0.445569 -0.38632,0.858203 -0.38632,0.916967 0,0.233722 0.687564,0.08561 1.3395,-0.28855 z m 11.268771,0.269388 c 0,-0.0693 -0.177572,-0.456144 -0.394613,-0.859655 -0.374906,-0.697018 -0.398705,-0.707067 -0.476609,-0.201186 -0.110607,0.718225 0.09478,1.186847 0.520171,1.186847 0.193079,0 0.351051,-0.0567 0.351051,-0.126006 z m -1.146206,-2.044012 c 0,-0.05876 -0.173845,-0.471394 -0.386316,-0.916963 l -0.386323,-0.810123 h -4.385289 -4.385292 l -0.371469,0.778986 c -0.204312,0.42844 -0.309383,0.841079 -0.233493,0.916964 0.160232,0.160235 10.148182,0.190879 10.148182,0.03115 z"
       style="fill:#ffffff;stroke-width:0.22924134" />
  </g>
</svg>
